<svg width="32" height="32" viewBox="0 0 32 32" fill="none" xmlns="http://www.w3.org/2000/svg">
<rect width="32" height="32" rx="8" fill="url(#paint0_linear_2012_306)"/>
<circle cx="16" cy="12.5" r="2.8" stroke="white" stroke-width="1.3"/>
<path d="M11.5 21.5C11.5 18.5 13.5 17.5 16 17.5C18.5 17.5 20.5 18.5 20.5 21.5" stroke="white" stroke-width="1.3" stroke-linecap="round"/>
<path d="M20.5 11C21.5 11.5 22 12.5 22 13.5C22 14.5 21.5 15.5 20.5 16" stroke="white" stroke-width="1.2" stroke-linecap="round"/>
<path d="M21.5 18.5C22.8 19 23.5 20 23.5 21.5" stroke="white" stroke-width="1.2" stroke-linecap="round"/>
<path d="M11.5 11C10.5 11.5 10 12.5 10 13.5C10 14.5 10.5 15.5 11.5 16" stroke="white" stroke-width="1.2" stroke-linecap="round"/>
<path d="M10.5 18.5C9.2 19 8.5 20 8.5 21.5" stroke="white" stroke-width="1.2" stroke-linecap="round"/>
<defs>
<linearGradient id="paint0_linear_2012_306" x1="-14.5778" y1="16" x2="32" y2="16" gradientUnits="userSpaceOnUse">
<stop stop-color="#00CF90"/>
<stop offset="1" stop-color="#016FBF"/>
</linearGradient>
</defs>
</svg>

